<svg xmlns="http://www.w3.org/2000/svg" id="Layer_1" x="0" y="0" version="1.1" viewBox="0 0 745 284" xml:space="preserve">

	<style></style>

<!-- Logic for shadow  -->
	<defs>
		<filter id = "offset" x="-100%" y="0" width="300%" height="200%">
			<feOffset in="SourceGraphic" result="offsetresult" dx="0" dy="12"/>
			<feGaussianBlur in="offsetresult" result="blurresult" stdDeviation="6"/>
			<feBlend in="SourceGraphic" in2="blurresult" mode="normal"/>
		</filter>
	</defs>

<!-- white logo bg  -->
	<path id="LogoBG" fill="#000" opacity=".4" d="M604.76 73.76c10.38 0 22.09 8.9 22.11 21.19 0 6.9-2.23 12.24-5.49 17.08a31.54 31.54 0 00-4.37 9.33c-.7 2.95-2.27 10.01 6.5 10.18 5.65.1 19.64-4.79 30.94-18.33a63.55 63.55 0 00-49.68-103.17h-.01a63.54 63.54 0 00-63.54 63.55 63.14 63.14 0 0013.86 39.62c11.3 13.54 25.3 18.42 30.94 18.33 8.77-.17 7.21-7.24 6.5-10.18a31.8 31.8 0 00-4.37-9.33c-3.26-4.83-5.49-10.18-5.49-17.08.02-12.3 11.72-21.19 22.1-21.19zM717.12 137.98c-2.59-2.14-7.18-5.28-16.54-6.69-12.99-1.96-24.62 1.09-31.63 3.86-9.15 3.6-20.5 11.78-28.32 22.49-8.22 11.3-12.54 28.35-8.42 46.11a41.85 41.85 0 004.25 11.33c2.5 4.79 8.89 11.42 14.56 12.61 4.48.94 7.96-1.64 9.63-3.56 11.38-13.06 54.43-63.63 59.1-70.12 4.59-6.38 1.59-12.52-2.63-16.03zM540.56 135.16c-7.01-2.76-18.63-5.82-31.63-3.86-9.34 1.4-13.94 4.55-16.53 6.69-4.22 3.5-7.23 9.65-2.63 16.04 4.67 6.48 47.73 57.06 59.1 70.12 1.66 1.92 5.16 4.5 9.64 3.56 5.65-1.2 12.04-7.83 14.55-12.61a42.18 42.18 0 004.25-11.33c4.11-17.76-.2-34.81-8.43-46.11-7.81-10.73-19.15-18.9-28.32-22.5z" filter="url(#offset)"/>

<!-- Top Pettal  -->
	<radialGradient id="TOP_PETAL" cx="604.76" cy="118.97" r="144.47" fx="491.02" fy="118.17" gradientUnits="userSpaceOnUse">
		<stop offset="0" stop-color="#66c0de"/>
		<stop offset=".14" stop-color="#4cafd5"/>
		<stop offset=".69" stop-color="#007dba"/>
		<stop offset="1" stop-color="#004165"/>
	</radialGradient>

	<path fill="url(#TOP_PETAL)" d="M604.76 73.76c10.38 0 22.09 8.9 22.11 21.19 0 6.9-2.23 12.24-5.49 17.08a31.54 31.54 0 00-4.37 9.33c-.7 2.95-2.27 10.01 6.5 10.18 5.65.1 19.64-4.79 30.94-18.33a63.55 63.55 0 00-49.68-103.17h-.01a63.54 63.54 0 00-63.54 63.55 63.14 63.14 0 0013.86 39.62c11.3 13.54 25.3 18.42 30.94 18.33 8.77-.17 7.21-7.24 6.5-10.18a31.8 31.8 0 00-4.37-9.33c-3.26-4.83-5.49-10.18-5.49-17.08.02-12.3 11.72-21.19 22.1-21.19z"/>


<!-- Right Pettal  -->
	<radialGradient id="RIGHT_PETAL" cx="604.76" cy="118.97" r="144.47" fx="491.02" fy="118.17" gradientUnits="userSpaceOnUse">

		<stop offset="0" stop-color="#66c0de"/>
		<stop offset=".14" stop-color="#4cafd5"/>
		<stop offset=".69" stop-color="#007dba"/>
		<stop offset="1" stop-color="#004165"/>
	
	</radialGradient>

	<path fill="url(#RIGHT_PETAL)" d="M717.12 137.98c-2.59-2.14-7.18-5.28-16.54-6.69-12.99-1.96-24.62 1.09-31.63 3.86-9.15 3.6-20.5 11.78-28.32 22.49-8.22 11.3-12.54 28.35-8.42 46.11a41.85 41.85 0 004.25 11.33c2.5 4.79 8.89 11.42 14.56 12.61 4.48.94 7.96-1.64 9.63-3.56 11.38-13.06 54.43-63.63 59.1-70.12 4.59-6.38 1.59-12.52-2.63-16.03z"/>

	
<!-- Left Pettal  -->
	<radialGradient id="LEFT_PETAL" cx="604.76" cy="118.97" r="144.47" fx="491.02" fy="118.17" gradientUnits="userSpaceOnUse">
		
		<stop offset="0" stop-color="#66c0de"/>
		<stop offset=".14" stop-color="#4cafd5"/>
		<stop offset=".69" stop-color="#007dba"/>
		<stop offset="1" stop-color="#004165"/>
	
	</radialGradient>

	<path fill="url(#LEFT_PETAL)" d="M540.56 135.16c-7.01-2.76-18.63-5.82-31.63-3.86-9.34 1.4-13.94 4.55-16.53 6.69-4.22 3.5-7.23 9.65-2.63 16.04 4.67 6.48 47.73 57.06 59.1 70.12 1.66 1.92 5.16 4.5 9.64 3.56 5.65-1.2 12.04-7.83 14.55-12.61a42.18 42.18 0 004.25-11.33c4.11-17.76-.2-34.81-8.43-46.11-7.81-10.73-19.15-18.9-28.32-22.5z"/>


<!-- Lotus highlights  -->
	<path id="LotHighlight" fill="#fff" opacity=".4" d="M604.76 14.58a63.53 63.53 0 0163.51 61.46 63.55 63.55 0 00-63.51-65.99h-.01a63.54 63.54 0 00-63.49 66 63.54 63.54 0 0163.5-61.47zM640.64 157.64c-6.38 8.77-10.39 21.01-9.95 34.36.49-11.57 4.3-22.05 9.95-29.82 7.82-10.71 19.17-18.88 28.32-22.49 7-2.76 18.64-5.82 31.63-3.86 9.36 1.4 13.94 4.55 16.54 6.69a13.5 13.5 0 014.66 7.14c1.09-4.73-1.42-8.98-4.66-11.68-2.59-2.14-7.18-5.28-16.54-6.69-12.99-1.96-24.62 1.09-31.63 3.86-9.16 3.61-20.51 11.78-28.32 22.49zM540.56 135.16c-7.01-2.76-18.63-5.82-31.63-3.86-9.34 1.4-13.94 4.55-16.53 6.69-3.25 2.69-5.76 6.95-4.66 11.68.67-2.86 2.5-5.35 4.66-7.14 2.59-2.14 7.19-5.28 16.53-6.69 13-1.96 24.62 1.09 31.63 3.86 9.17 3.6 20.51 11.78 28.33 22.49 5.66 7.77 9.46 18.25 9.95 29.82.44-13.34-3.56-25.59-9.95-34.35-7.82-10.73-19.16-18.9-28.33-22.5z"/>


<!-- ANZ shape  -->
	<path id="AnzShape" fill="#fff" d="M353.68 114.18l50.56.02-21.8 28.47h58.95c10.5-13.73 20.09-26.24 21.49-28.1 6.65-8.67 8.18-16.44 8.18-23.3v-9.82c0-4.98-3.07-7.72-7.71-7.72l-109.66.01c-4.51 0-7.54 2.46-7.54 7.55v25.34c-.02 5.09 3.01 7.55 7.53 7.55zM27.92 212.6c-1.4 2.31-1.39 4.75-.57 6.35.96 1.87 3.11 2.92 5.48 2.92l35.9.01c4.56 0 8.57-2.39 10.85-6.02l39.6-62.89H65.42c-18.48 29.38-37.08 58.92-37.5 59.63zM175.54 152.98h-50.27l11.09 61.87c.84 4.71 3.76 7.05 8.1 7.05h34.59c3.17 0 4.77-.98 6.24-2.79 1.01-1.24 1.46-3.15.97-5.93l-10.72-60.2zM330.41 81.29c0-5.08-3.03-7.55-7.55-7.55h-30.59c-4.51 0-7.55 2.46-7.55 7.55l-.01 57.43-29-51.64c-5.72-9.5-15.5-13.09-26.82-13.33h-22.57c-4.52 0-7.55 2.46-7.55 7.55v61.38h37.95l5.8 10.3h-43.75v61.36c0 5.08 3.04 7.55 7.55 7.55h30.59c4.52 0 7.54-2.46 7.54-7.55v-57.79l29.21 52.01c5.72 9.49 15.5 13.07 26.82 13.32h22.38c4.52 0 7.55-2.46 7.55-7.55v-61.35h-37.69l-5.79-10.3h43.48V81.29zM162.71 80.92c-.88-4.83-4.09-7.15-8.36-7.15h-14.99a43.64 43.64 0 00-37.1 20.59l-30.37 48.32h101.8l-10.98-61.76zM464.82 181.44l-53.09-.01 21.78-28.45h-58.97l-20.99 27.36c-7.87 10.89-8.62 21.9-8.62 29.51v4.3c0 4.98 3.07 7.71 7.73 7.71h112.16c4.51 0 7.55-2.45 7.55-7.54v-25.34c0-5.07-3.04-7.54-7.55-7.54z"/>

</svg>